<?xml version="1.0" encoding="UTF-8"?>
<svg width="1200pt" height="1200pt" version="1.1" viewBox="0 0 1200 1200" xmlns="http://www.w3.org/2000/svg">
 <path d="m326.51 221.52c0 201.57 67.191 374.8 162.73 451.45-53.543 1.0508-101.84 3.1484-142.78 6.3008-112.34 9.4453-123.89 20.992-120.73 36.742l48.293 139.63c7.3477 14.699 20.996 24.148 103.94 31.496 52.492 4.1992 119.68 7.3477 191.07 8.3984v216.27c0 15.746 13.648 29.395 29.395 29.395h1.0508c15.746 0 29.395-13.648 29.395-29.395l0.003906-216.27c71.391-1.0508 137.53-3.1484 188.98-8.3984 82.941-7.3477 99.738-17.848 103.94-31.496l49.344-139.63c4.1992-15.746-8.3984-27.297-119.68-35.695-40.945-3.1484-89.238-5.25-142.78-6.3008 95.539-76.641 162.73-250.92 162.73-451.45l-2.1016-57.742c0-15.746-13.648-25.195-87.141-33.598-41.996-4.1992-95.539-7.3477-153.28-8.3984v-14.699c0-16.797-13.648-29.395-29.395-29.395-16.797 0-29.395 13.648-29.395 29.395v14.699c-57.742 1.0508-112.34 3.1484-154.33 8.3984-70.34 7.3477-86.09 16.797-87.141 31.496zm559.58 494.49c-53.543 5.25-142.78 10.5-257.22 11.547v-14.699c9.4492-2.1016 17.848-4.1992 26.246-7.3477 102.89 1.0508 181.63 5.25 230.97 10.5zm-62.992 37.793-18.898 103.94c-23.098 2.1016-50.395 3.1484-81.891 5.25l8.3984-104.99c33.598-1.0469 65.094-2.0977 92.391-4.1992zm17.848-532.28c0 183.73-56.691 343.31-137.53 417.85 53.543-87.141 88.188-240.42 88.188-417.85v-25.195c22.047-2.1016 37.797-5.25 49.344-8.3984-1.0508 11.547 0 23.094 0 33.594zm-173.23 414.7c36.746-101.84 51.445-280.32 51.445-414.7v-18.898c13.648-1.0508 27.297-2.1016 38.844-3.1484v22.047c1.0508 193.18-38.844 342.26-90.289 414.7zm-37.793-486.09c90.289 1.0508 157.48 7.3477 192.12 13.648-33.598 6.3008-100.79 12.598-192.12 13.648zm0 55.641c19.949 0 39.895-1.0508 58.793-1.0508v17.848c0 208.93-28.348 361.16-58.793 427.3zm-59.844-55.641v27.297c-91.34-1.0508-158.53-7.3477-193.18-13.648 34.645-6.3008 101.84-12.602 193.18-13.648zm-39.895 486.09c-50.395-72.441-91.34-221.52-91.34-414.7v-22.047c12.598 1.0508 25.195 2.1016 38.844 3.1484v18.898c0.003906 134.39 15.75 312.86 52.496 414.7zm-20.996-414.7v-17.848c18.898 1.0508 39.895 1.0508 59.844 1.0508v447.24c-29.398-62.992-59.844-217.32-59.844-430.45zm-151.18 0c0-11.547 0-22.047 1.0508-33.598 11.547 3.1484 27.297 6.3008 49.344 8.3984v25.195c0 178.48 34.645 330.71 88.188 417.85-82.938-73.488-138.58-233.07-138.58-417.84zm183.73 483.99c9.4492 3.1484 18.898 6.3008 28.348 8.3984v13.648c-115.48-1.0508-204.72-5.25-258.27-11.547 49.348-5.25 128.09-9.4492 229.92-10.5zm-80.84 52.492 8.3984 104.99c-28.348-1.0508-54.594-3.1484-76.641-4.1992l-14.699-103.94c25.199 1.0508 53.547 2.1016 82.941 3.1484zm-193.18-14.695c17.848 3.1484 43.043 6.3008 77.691 9.4492h2.1016l14.699 102.89c-31.496-3.1484-51.445-7.3477-58.793-10.5zm232.02 120.73-8.3984-104.99c25.195 1.0508 51.445 1.0508 78.738 1.0508v104.99c-25.195 0-48.293-1.0508-70.34-1.0508zm130.18-103.94c24.148 0 48.293 0 71.391-1.0508l-8.3984 104.99c-19.949 1.0508-40.945 1.0508-62.992 1.0508zm264.57 85.039c-7.3477 3.1484-27.297 7.3477-58.793 10.5l18.898-102.89c33.598-3.1484 57.742-5.25 75.59-8.3984z" fill="#00449e"/>
</svg>
