<?xml version="1.0" encoding="UTF-8"?>
<svg width="60pt" height="60pt" version="1.1" viewBox="0 0 1200 1200" xmlns="http://www.w3.org/2000/svg">
 <defs>
  <clipPath id="b">
   <path d="m226 286h776v587h-776z"/>
  </clipPath>
  <clipPath id="a">
   <path d="m332.82 137.22 729.96 195.59-195.59 729.96-729.96-195.59z"/>
  </clipPath>
 </defs>
 <g clip-path="url(#b)">
  <g clip-path="url(#a)">
   <path d="m447.3 839.96 27.789-115.39-33-87.078-69.824 97.078c-2.4375 3.2578-4.875 6.5156-8.5781 8.6562l-99.141 63.41c-11.301 7.1406-26.828 3.7656-34.699-7.7344-6.6094-10.375-4.1562-25.367 6.2188-31.977l92.18-63.707 71.133-131.16 65.258-141.34-84.168 1.6992-58.129 44.668c-9.8438 7.5352-23.371 5.4727-31.102-3.6406-7-8.918-5.8633-21.914 3.7812-28.715l70.746-53.805c3.8984-2.8672 8.3281-4.8086 12.906-4.3672l98.484-2.5586c3.1172 0.050782 6.9609 0.30078 9.6836 1.8125l102.57 37.656 86.539 9.8867 77.734-33.156c9.7891-4.418 22.199-1.0938 28.273 8.3594 7.3398 10.574 3.2305 25.902-8.9453 30.465l-89.711 36.988c-4.4336 1.9414-8.4727 2.4258-13.047 1.9805l-99.055-6.9844-72.543 127.65 34.145 106.16c2.8164 7.0117 2.3203 14.703 0.36328 22.004l-36.562 124.77c-4.6406 14.402-16.531 23.734-31.129 19.824-13.141-3.5195-21.887-17.602-18.172-31.469zm136.14-551.87c-26.277-7.043-53.852 8.2617-61.086 35.27-7.2383 27.008 8.2617 53.852 35.27 61.086 26.277 7.043 53.852-8.2617 61.086-35.27 7.2383-27.008-8.9883-54.047-35.27-61.086zm212.12 107.69c-1.7227 15.188 43.094 31.887 100.19 37.797s103.59-1.1914 105.31-16.375c1.7227-15.188-43.094-31.887-100.19-37.797-56.363-5.7188-103.79 1.918-105.31 16.375z"/>
  </g>
 </g>
</svg>
